<svg width="56" height="42" viewBox="0 0 56 42" fill="none" xmlns="http://www.w3.org/2000/svg">
<path d="M8.02441 34.7744H7.57324C7.24382 34.7744 6.99316 34.7171 6.82129 34.6025C6.62077 34.4593 6.34147 33.9294 5.9834 33.0127L1.72949 22.3564H0.633789V21.7764H6.43457V22.3564H4.7373L8.41113 31.4443L11.6553 22.3564H9.93652V21.7764H13.5889V22.3564H12.5146L8.02441 34.7744ZM20.4639 34.667H14.0186V34.0869H15.7373V22.3564H14.0186V21.7764H20.4639V22.3564H18.7451V34.0869H19.8838C20.1846 34.1156 20.3779 34.3089 20.4639 34.667ZM30.7119 22.3564V21.7764H35.0518V22.3564H33.333V34.5596L32.1084 34.7744L23.8369 25.1279V34.0869H25.083C25.3838 34.1156 25.5771 34.3089 25.6631 34.667H21.2158V34.0869H22.9346V22.3564H21.2158V21.7764H24.8467L32.4307 30.6709V22.3564H30.7119ZM46.8682 33.8291C45.5075 34.5309 44.0895 34.8818 42.6143 34.8818C40.5374 34.8818 38.8617 34.2158 37.5869 32.8838C36.3981 31.6234 35.8037 30.0693 35.8037 28.2217C35.8037 26.6605 36.2549 25.2783 37.1572 24.0752C38.432 22.3994 40.2725 21.5615 42.6787 21.5615C44.1826 21.5615 45.5576 21.8981 46.8037 22.5713C46.7894 22.3421 46.7965 22.1559 46.8252 22.0127C46.8968 21.7835 47.1188 21.6689 47.4912 21.6689L47.5557 25.9014H46.8037C46.5745 25.0706 46.3096 24.3903 46.0088 23.8604C45.3643 22.7575 44.3688 22.2061 43.0225 22.2061C40.473 22.2204 39.1911 24.1898 39.1768 28.1143C39.1768 29.3174 39.2627 30.3271 39.4346 31.1436C39.8929 33.2061 41.0316 34.2373 42.8506 34.2373C43.3089 34.2373 43.7243 34.1872 44.0967 34.0869C45.443 33.7145 46.3812 32.5329 46.9111 30.542H47.6201V34.7744C47.4626 34.7744 47.3337 34.7601 47.2334 34.7314C46.9756 34.6742 46.8538 34.3734 46.8682 33.8291ZM54.9248 34.667H48.4795V34.0869H50.1982V22.3564H48.4795V21.7764H54.9248V22.3564H53.2061V34.0869H54.3447C54.6455 34.1156 54.8389 34.3089 54.9248 34.667Z" fill="black"/>
<path d="M0.5625 6.43018H6.90039C8.49023 6.43018 9.87956 6.80973 11.0684 7.56885C12.873 8.74333 13.7754 10.5265 13.7754 12.9185C13.7754 14.7948 13.1452 16.3273 11.8848 17.5161C10.5957 18.7192 8.95573 19.3208 6.96484 19.3208H0.5625V18.7407H2.28125V7.01025H0.5625V6.43018ZM6.96484 7.01025H5.28906V18.7407H6.92188C7.59505 18.7407 8.16081 18.6047 8.61914 18.3325C9.80794 17.6307 10.4023 15.7902 10.4023 12.811C10.4023 11.3215 10.2591 10.1255 9.97266 9.22314C9.47135 7.74788 8.46875 7.01025 6.96484 7.01025ZM28.4277 19.3208H22.6699V18.7407H24.1953L22.584 14.6157H18.3086L16.7617 18.7407H17.9648C18.0508 18.7407 18.1296 18.7479 18.2012 18.7622C18.3874 18.7909 18.4805 18.9771 18.4805 19.3208H14.5273V18.7407H15.9023L20.6074 6.43018H22.1973L27.2676 18.7407H27.9121C27.998 18.7407 28.0768 18.7479 28.1484 18.7622C28.3346 18.7909 28.4277 18.9771 28.4277 19.3208ZM22.3262 13.9712L20.4141 9.02979L18.5664 13.9712H22.3262Z" fill="black"/>
</svg>
