<svg width="78" height="96" viewBox="0 0 78 96" fill="none" xmlns="http://www.w3.org/2000/svg">
<path d="M8.2998 35.2812H7.84863C7.51921 35.2812 7.26855 35.224 7.09668 35.1094C6.89616 34.9661 6.61686 34.4362 6.25879 33.5195L2.00488 22.8633H0.90918V22.2832H6.70996V22.8633H5.0127L8.68652 31.9512L11.9307 22.8633H10.2119V22.2832H13.8643V22.8633H12.79L8.2998 35.2812ZM20.7393 35.1738H14.2939V34.5938H16.0127V22.8633H14.2939V22.2832H20.7393V22.8633H19.0205V34.5938H20.1592C20.46 34.6224 20.6533 34.8158 20.7393 35.1738ZM30.9873 22.8633V22.2832H35.3271V22.8633H33.6084V35.0664L32.3838 35.2812L24.1123 25.6348V34.5938H25.3584C25.6592 34.6224 25.8525 34.8158 25.9385 35.1738H21.4912V34.5938H23.21V22.8633H21.4912V22.2832H25.1221L32.7061 31.1777V22.8633H30.9873ZM47.1436 34.3359C45.7829 35.0378 44.3649 35.3887 42.8896 35.3887C40.8128 35.3887 39.137 34.7227 37.8623 33.3906C36.6735 32.1302 36.0791 30.5762 36.0791 28.7285C36.0791 27.1673 36.5303 25.7852 37.4326 24.582C38.7074 22.9062 40.5479 22.0684 42.9541 22.0684C44.458 22.0684 45.833 22.4049 47.0791 23.0781C47.0648 22.849 47.0719 22.6628 47.1006 22.5195C47.1722 22.2904 47.3942 22.1758 47.7666 22.1758L47.8311 26.4082H47.0791C46.8499 25.5775 46.585 24.8971 46.2842 24.3672C45.6396 23.2643 44.6442 22.7129 43.2979 22.7129C40.7484 22.7272 39.4665 24.6966 39.4521 28.6211C39.4521 29.8242 39.5381 30.834 39.71 31.6504C40.1683 33.7129 41.307 34.7441 43.126 34.7441C43.5843 34.7441 43.9997 34.694 44.3721 34.5938C45.7184 34.2214 46.6566 33.0397 47.1865 31.0488H47.8955V35.2812C47.738 35.2812 47.609 35.2669 47.5088 35.2383C47.251 35.181 47.1292 34.8802 47.1436 34.3359ZM55.2002 35.1738H48.7549V34.5938H50.4736V22.8633H48.7549V22.2832H55.2002V22.8633H53.4814V34.5938H54.6201C54.9209 34.6224 55.1143 34.8158 55.2002 35.1738Z" fill="black"/>
<path d="M0.837891 6.93701H7.17578C8.76562 6.93701 10.1549 7.31657 11.3438 8.07568C13.1484 9.25016 14.0508 11.0334 14.0508 13.4253C14.0508 15.3016 13.4206 16.8341 12.1602 18.0229C10.8711 19.2261 9.23112 19.8276 7.24023 19.8276H0.837891V19.2476H2.55664V7.51709H0.837891V6.93701ZM7.24023 7.51709H5.56445V19.2476H7.19727C7.87044 19.2476 8.4362 19.1115 8.89453 18.8394C10.0833 18.1375 10.6777 16.297 10.6777 13.3179C10.6777 11.8283 10.5345 10.6323 10.248 9.72998C9.74674 8.25472 8.74414 7.51709 7.24023 7.51709ZM28.7031 19.8276H22.9453V19.2476H24.4707L22.8594 15.1226H18.584L17.0371 19.2476H18.2402C18.3262 19.2476 18.4049 19.2547 18.4766 19.269C18.6628 19.2977 18.7559 19.4839 18.7559 19.8276H14.8027V19.2476H16.1777L20.8828 6.93701H22.4727L27.543 19.2476H28.1875C28.2734 19.2476 28.3522 19.2547 28.4238 19.269C28.61 19.2977 28.7031 19.4839 28.7031 19.8276ZM22.6016 14.478L20.6895 9.53662L18.8418 14.478H22.6016Z" fill="black"/>
<g filter="url(#filter0_dddd_177_56)">
<path d="M46.7407 19.8276C46.7407 18.4218 46.3284 17.0476 45.5561 15.8788C44.7837 14.71 43.6858 13.799 42.4014 13.261C41.117 12.723 39.7036 12.5823 38.3401 12.8565C36.9765 13.1308 35.724 13.8077 34.741 14.8017L39.7114 19.8276H46.7407Z" fill="white"/>
<path d="M55.1978 19.8276C55.1978 16.7305 54.2895 13.703 52.5878 11.1278C50.8861 8.55271 48.4674 6.54564 45.6376 5.36044C42.8078 4.17523 39.694 3.86513 36.6899 4.46934C33.6858 5.07355 30.9264 6.56494 28.7605 8.75491L32.1762 12.2086C33.6665 10.7018 35.5652 9.67555 37.6323 9.2598C39.6994 8.84405 41.8419 9.05743 43.7891 9.87295C45.7362 10.6885 47.4005 12.0695 48.5714 13.8414C49.7423 15.6133 50.3673 17.6965 50.3673 19.8276H55.1978Z" fill="white"/>
</g>
<defs>
<filter id="filter0_dddd_177_56" x="6.76074" y="0.168457" width="70.437" height="95.6592" filterUnits="userSpaceOnUse" color-interpolation-filters="sRGB">
<feFlood flood-opacity="0" result="BackgroundImageFix"/>
<feColorMatrix in="SourceAlpha" type="matrix" values="0 0 0 0 0 0 0 0 0 0 0 0 0 0 0 0 0 0 127 0" result="hardAlpha"/>
<feOffset dy="3"/>
<feGaussianBlur stdDeviation="3.5"/>
<feColorMatrix type="matrix" values="0 0 0 0 0 0 0 0 0 0 0 0 0 0 0 0 0 0 0.1 0"/>
<feBlend mode="normal" in2="BackgroundImageFix" result="effect1_dropShadow_177_56"/>
<feColorMatrix in="SourceAlpha" type="matrix" values="0 0 0 0 0 0 0 0 0 0 0 0 0 0 0 0 0 0 127 0" result="hardAlpha"/>
<feOffset dy="14"/>
<feGaussianBlur stdDeviation="7"/>
<feColorMatrix type="matrix" values="0 0 0 0 0 0 0 0 0 0 0 0 0 0 0 0 0 0 0.09 0"/>
<feBlend mode="normal" in2="effect1_dropShadow_177_56" result="effect2_dropShadow_177_56"/>
<feColorMatrix in="SourceAlpha" type="matrix" values="0 0 0 0 0 0 0 0 0 0 0 0 0 0 0 0 0 0 127 0" result="hardAlpha"/>
<feOffset dy="31"/>
<feGaussianBlur stdDeviation="9"/>
<feColorMatrix type="matrix" values="0 0 0 0 0 0 0 0 0 0 0 0 0 0 0 0 0 0 0.05 0"/>
<feBlend mode="normal" in2="effect2_dropShadow_177_56" result="effect3_dropShadow_177_56"/>
<feColorMatrix in="SourceAlpha" type="matrix" values="0 0 0 0 0 0 0 0 0 0 0 0 0 0 0 0 0 0 127 0" result="hardAlpha"/>
<feOffset dy="54"/>
<feGaussianBlur stdDeviation="11"/>
<feColorMatrix type="matrix" values="0 0 0 0 0 0 0 0 0 0 0 0 0 0 0 0 0 0 0.01 0"/>
<feBlend mode="normal" in2="effect3_dropShadow_177_56" result="effect4_dropShadow_177_56"/>
<feBlend mode="normal" in="SourceGraphic" in2="effect4_dropShadow_177_56" result="shape"/>
</filter>
</defs>
</svg>
