<svg width="484" height="231" viewBox="0 0 484 231" fill="none" xmlns="http://www.w3.org/2000/svg">
<g filter="url(#filter0_dddd_187_2)">
<path d="M11.0775 50.7303L5.42067 56.3871L16.7344 67.7008L22.3912 62.044L16.7344 56.3871L11.0775 50.7303ZM55.9697 17.1517L61.6266 11.4949L55.9697 5.83803L50.3129 11.4949L55.9697 17.1517ZM95.2051 56.3871L89.5483 62.044L95.2051 67.7008L100.862 62.044L95.2051 56.3871ZM134.44 17.1517L140.097 11.4949L134.44 5.83803L128.784 11.4949L134.44 17.1517ZM173.676 56.3871L168.019 62.044L173.676 67.7008L179.333 62.044L173.676 56.3871ZM212.911 17.1517L218.568 11.4949L212.911 5.83803L207.254 11.4949L212.911 17.1517ZM252.147 56.3871L246.49 62.044L252.147 67.7008L257.803 62.044L252.147 56.3871ZM291.382 17.1517L297.039 11.4949L291.382 5.83803L285.725 11.4949L291.382 17.1517ZM330.617 56.3871L324.961 62.044L330.617 67.7008L336.274 62.044L330.617 56.3871ZM369.853 17.1517L375.51 11.4949L369.853 5.83803L364.196 11.4949L369.853 17.1517ZM403.431 62.044C406.556 65.1682 411.621 65.1682 414.745 62.044C417.869 58.9198 417.869 53.8544 414.745 50.7303L409.088 56.3871L403.431 62.044ZM16.7344 56.3871L22.3912 62.044L61.6266 22.8086L55.9697 17.1517L50.3129 11.4949L11.0775 50.7303L16.7344 56.3871ZM55.9697 17.1517L50.3129 22.8086L89.5483 62.044L95.2051 56.3871L100.862 50.7303L61.6266 11.4949L55.9697 17.1517ZM95.2051 56.3871L100.862 62.044L140.097 22.8086L134.44 17.1517L128.784 11.4949L89.5483 50.7303L95.2051 56.3871ZM134.44 17.1517L128.784 22.8086L168.019 62.044L173.676 56.3871L179.333 50.7303L140.097 11.4949L134.44 17.1517ZM173.676 56.3871L179.333 62.044L218.568 22.8086L212.911 17.1517L207.254 11.4949L168.019 50.7303L173.676 56.3871ZM212.911 17.1517L207.254 22.8086L246.49 62.044L252.147 56.3871L257.803 50.7303L218.568 11.4949L212.911 17.1517ZM252.147 56.3871L257.803 62.044L297.039 22.8086L291.382 17.1517L285.725 11.4949L246.49 50.7303L252.147 56.3871ZM291.382 17.1517L285.725 22.8086L324.961 62.044L330.617 56.3871L336.274 50.7303L297.039 11.4949L291.382 17.1517ZM330.617 56.3871L336.274 62.044L375.51 22.8086L369.853 17.1517L364.196 11.4949L324.961 50.7303L330.617 56.3871ZM369.853 17.1517L364.196 22.8086L403.431 62.044L409.088 56.3871L414.745 50.7303L375.51 11.4949L369.853 17.1517Z" fill="#FDFDFD"/>
</g>
<g filter="url(#filter1_dddd_187_2)">
<path d="M11.0775 98.8678L5.42067 104.525L16.7344 115.838L22.3912 110.181L16.7344 104.525L11.0775 98.8678ZM55.9697 65.2892L61.6266 59.6324L55.9697 53.9755L50.3129 59.6324L55.9697 65.2892ZM95.2051 104.525L89.5483 110.181L95.2051 115.838L100.862 110.181L95.2051 104.525ZM134.44 65.2892L140.097 59.6324L134.44 53.9755L128.784 59.6324L134.44 65.2892ZM173.676 104.525L168.019 110.181L173.676 115.838L179.333 110.181L173.676 104.525ZM212.911 65.2892L218.568 59.6324L212.911 53.9755L207.254 59.6324L212.911 65.2892ZM252.147 104.525L246.49 110.181L252.147 115.838L257.803 110.181L252.147 104.525ZM291.382 65.2892L297.039 59.6324L291.382 53.9755L285.725 59.6324L291.382 65.2892ZM330.617 104.525L324.961 110.181L330.617 115.838L336.274 110.181L330.617 104.525ZM369.853 65.2892L375.51 59.6324L369.853 53.9755L364.196 59.6324L369.853 65.2892ZM403.431 110.181C406.556 113.306 411.621 113.306 414.745 110.181C417.869 107.057 417.869 101.992 414.745 98.8678L409.088 104.525L403.431 110.181ZM16.7344 104.525L22.3912 110.181L61.6266 70.9461L55.9697 65.2892L50.3129 59.6324L11.0775 98.8678L16.7344 104.525ZM55.9697 65.2892L50.3129 70.9461L89.5483 110.181L95.2051 104.525L100.862 98.8678L61.6266 59.6324L55.9697 65.2892ZM95.2051 104.525L100.862 110.181L140.097 70.9461L134.44 65.2892L128.784 59.6324L89.5483 98.8678L95.2051 104.525ZM134.44 65.2892L128.784 70.9461L168.019 110.181L173.676 104.525L179.333 98.8678L140.097 59.6324L134.44 65.2892ZM173.676 104.525L179.333 110.181L218.568 70.9461L212.911 65.2892L207.254 59.6324L168.019 98.8678L173.676 104.525ZM212.911 65.2892L207.254 70.9461L246.49 110.181L252.147 104.525L257.803 98.8678L218.568 59.6324L212.911 65.2892ZM252.147 104.525L257.803 110.181L297.039 70.9461L291.382 65.2892L285.725 59.6324L246.49 98.8678L252.147 104.525ZM291.382 65.2892L285.725 70.9461L324.961 110.181L330.617 104.525L336.274 98.8678L297.039 59.6324L291.382 65.2892ZM330.617 104.525L336.274 110.181L375.51 70.9461L369.853 65.2892L364.196 59.6324L324.961 98.8678L330.617 104.525ZM369.853 65.2892L364.196 70.9461L403.431 110.181L409.088 104.525L414.745 98.8678L375.51 59.6324L369.853 65.2892Z" fill="#FDFDFD"/>
</g>
<g filter="url(#filter2_dddd_187_2)">
<path d="M11.0775 147.005L5.42067 152.662L16.7344 163.976L22.3912 158.319L16.7344 152.662L11.0775 147.005ZM55.9697 113.427L61.6266 107.77L55.9697 102.113L50.3129 107.77L55.9697 113.427ZM95.2051 152.662L89.5483 158.319L95.2051 163.976L100.862 158.319L95.2051 152.662ZM134.44 113.427L140.097 107.77L134.44 102.113L128.784 107.77L134.44 113.427ZM173.676 152.662L168.019 158.319L173.676 163.976L179.333 158.319L173.676 152.662ZM212.911 113.427L218.568 107.77L212.911 102.113L207.254 107.77L212.911 113.427ZM252.147 152.662L246.49 158.319L252.147 163.976L257.803 158.319L252.147 152.662ZM291.382 113.427L297.039 107.77L291.382 102.113L285.725 107.77L291.382 113.427ZM330.617 152.662L324.961 158.319L330.617 163.976L336.274 158.319L330.617 152.662ZM369.853 113.427L375.51 107.77L369.853 102.113L364.196 107.77L369.853 113.427ZM403.431 158.319C406.556 161.443 411.621 161.443 414.745 158.319C417.869 155.195 417.869 150.129 414.745 147.005L409.088 152.662L403.431 158.319ZM16.7344 152.662L22.3912 158.319L61.6266 119.083L55.9697 113.427L50.3129 107.77L11.0775 147.005L16.7344 152.662ZM55.9697 113.427L50.3129 119.083L89.5483 158.319L95.2051 152.662L100.862 147.005L61.6266 107.77L55.9697 113.427ZM95.2051 152.662L100.862 158.319L140.097 119.083L134.44 113.427L128.784 107.77L89.5483 147.005L95.2051 152.662ZM134.44 113.427L128.784 119.083L168.019 158.319L173.676 152.662L179.333 147.005L140.097 107.77L134.44 113.427ZM173.676 152.662L179.333 158.319L218.568 119.083L212.911 113.427L207.254 107.77L168.019 147.005L173.676 152.662ZM212.911 113.427L207.254 119.083L246.49 158.319L252.147 152.662L257.803 147.005L218.568 107.77L212.911 113.427ZM252.147 152.662L257.803 158.319L297.039 119.083L291.382 113.427L285.725 107.77L246.49 147.005L252.147 152.662ZM291.382 113.427L285.725 119.083L324.961 158.319L330.617 152.662L336.274 147.005L297.039 107.77L291.382 113.427ZM330.617 152.662L336.274 158.319L375.51 119.083L369.853 113.427L364.196 107.77L324.961 147.005L330.617 152.662ZM369.853 113.427L364.196 119.083L403.431 158.319L409.088 152.662L414.745 147.005L375.51 107.77L369.853 113.427Z" fill="#FDFDFD"/>
</g>
<defs>
<filter id="filter0_dddd_187_2" x="0.420898" y="0.838013" width="482.667" height="133.863" filterUnits="userSpaceOnUse" color-interpolation-filters="sRGB">
<feFlood flood-opacity="0" result="BackgroundImageFix"/>
<feColorMatrix in="SourceAlpha" type="matrix" values="0 0 0 0 0 0 0 0 0 0 0 0 0 0 0 0 0 0 127 0" result="hardAlpha"/>
<feOffset dx="3" dy="3"/>
<feGaussianBlur stdDeviation="4"/>
<feColorMatrix type="matrix" values="0 0 0 0 0 0 0 0 0 0 0 0 0 0 0 0 0 0 0.1 0"/>
<feBlend mode="normal" in2="BackgroundImageFix" result="effect1_dropShadow_187_2"/>
<feColorMatrix in="SourceAlpha" type="matrix" values="0 0 0 0 0 0 0 0 0 0 0 0 0 0 0 0 0 0 127 0" result="hardAlpha"/>
<feOffset dx="10" dy="11"/>
<feGaussianBlur stdDeviation="7.5"/>
<feColorMatrix type="matrix" values="0 0 0 0 0 0 0 0 0 0 0 0 0 0 0 0 0 0 0.09 0"/>
<feBlend mode="normal" in2="effect1_dropShadow_187_2" result="effect2_dropShadow_187_2"/>
<feColorMatrix in="SourceAlpha" type="matrix" values="0 0 0 0 0 0 0 0 0 0 0 0 0 0 0 0 0 0 127 0" result="hardAlpha"/>
<feOffset dx="23" dy="24"/>
<feGaussianBlur stdDeviation="10"/>
<feColorMatrix type="matrix" values="0 0 0 0 0 0 0 0 0 0 0 0 0 0 0 0 0 0 0.05 0"/>
<feBlend mode="normal" in2="effect2_dropShadow_187_2" result="effect3_dropShadow_187_2"/>
<feColorMatrix in="SourceAlpha" type="matrix" values="0 0 0 0 0 0 0 0 0 0 0 0 0 0 0 0 0 0 127 0" result="hardAlpha"/>
<feOffset dx="42" dy="43"/>
<feGaussianBlur stdDeviation="12"/>
<feColorMatrix type="matrix" values="0 0 0 0 0 0 0 0 0 0 0 0 0 0 0 0 0 0 0.01 0"/>
<feBlend mode="normal" in2="effect3_dropShadow_187_2" result="effect4_dropShadow_187_2"/>
<feBlend mode="normal" in="SourceGraphic" in2="effect4_dropShadow_187_2" result="shape"/>
</filter>
<filter id="filter1_dddd_187_2" x="0.420898" y="48.9755" width="482.667" height="133.863" filterUnits="userSpaceOnUse" color-interpolation-filters="sRGB">
<feFlood flood-opacity="0" result="BackgroundImageFix"/>
<feColorMatrix in="SourceAlpha" type="matrix" values="0 0 0 0 0 0 0 0 0 0 0 0 0 0 0 0 0 0 127 0" result="hardAlpha"/>
<feOffset dx="3" dy="3"/>
<feGaussianBlur stdDeviation="4"/>
<feColorMatrix type="matrix" values="0 0 0 0 0 0 0 0 0 0 0 0 0 0 0 0 0 0 0.1 0"/>
<feBlend mode="normal" in2="BackgroundImageFix" result="effect1_dropShadow_187_2"/>
<feColorMatrix in="SourceAlpha" type="matrix" values="0 0 0 0 0 0 0 0 0 0 0 0 0 0 0 0 0 0 127 0" result="hardAlpha"/>
<feOffset dx="10" dy="11"/>
<feGaussianBlur stdDeviation="7.5"/>
<feColorMatrix type="matrix" values="0 0 0 0 0 0 0 0 0 0 0 0 0 0 0 0 0 0 0.09 0"/>
<feBlend mode="normal" in2="effect1_dropShadow_187_2" result="effect2_dropShadow_187_2"/>
<feColorMatrix in="SourceAlpha" type="matrix" values="0 0 0 0 0 0 0 0 0 0 0 0 0 0 0 0 0 0 127 0" result="hardAlpha"/>
<feOffset dx="23" dy="24"/>
<feGaussianBlur stdDeviation="10"/>
<feColorMatrix type="matrix" values="0 0 0 0 0 0 0 0 0 0 0 0 0 0 0 0 0 0 0.05 0"/>
<feBlend mode="normal" in2="effect2_dropShadow_187_2" result="effect3_dropShadow_187_2"/>
<feColorMatrix in="SourceAlpha" type="matrix" values="0 0 0 0 0 0 0 0 0 0 0 0 0 0 0 0 0 0 127 0" result="hardAlpha"/>
<feOffset dx="42" dy="43"/>
<feGaussianBlur stdDeviation="12"/>
<feColorMatrix type="matrix" values="0 0 0 0 0 0 0 0 0 0 0 0 0 0 0 0 0 0 0.01 0"/>
<feBlend mode="normal" in2="effect3_dropShadow_187_2" result="effect4_dropShadow_187_2"/>
<feBlend mode="normal" in="SourceGraphic" in2="effect4_dropShadow_187_2" result="shape"/>
</filter>
<filter id="filter2_dddd_187_2" x="0.420898" y="97.1129" width="482.667" height="133.863" filterUnits="userSpaceOnUse" color-interpolation-filters="sRGB">
<feFlood flood-opacity="0" result="BackgroundImageFix"/>
<feColorMatrix in="SourceAlpha" type="matrix" values="0 0 0 0 0 0 0 0 0 0 0 0 0 0 0 0 0 0 127 0" result="hardAlpha"/>
<feOffset dx="3" dy="3"/>
<feGaussianBlur stdDeviation="4"/>
<feColorMatrix type="matrix" values="0 0 0 0 0 0 0 0 0 0 0 0 0 0 0 0 0 0 0.1 0"/>
<feBlend mode="normal" in2="BackgroundImageFix" result="effect1_dropShadow_187_2"/>
<feColorMatrix in="SourceAlpha" type="matrix" values="0 0 0 0 0 0 0 0 0 0 0 0 0 0 0 0 0 0 127 0" result="hardAlpha"/>
<feOffset dx="10" dy="11"/>
<feGaussianBlur stdDeviation="7.5"/>
<feColorMatrix type="matrix" values="0 0 0 0 0 0 0 0 0 0 0 0 0 0 0 0 0 0 0.09 0"/>
<feBlend mode="normal" in2="effect1_dropShadow_187_2" result="effect2_dropShadow_187_2"/>
<feColorMatrix in="SourceAlpha" type="matrix" values="0 0 0 0 0 0 0 0 0 0 0 0 0 0 0 0 0 0 127 0" result="hardAlpha"/>
<feOffset dx="23" dy="24"/>
<feGaussianBlur stdDeviation="10"/>
<feColorMatrix type="matrix" values="0 0 0 0 0 0 0 0 0 0 0 0 0 0 0 0 0 0 0.05 0"/>
<feBlend mode="normal" in2="effect2_dropShadow_187_2" result="effect3_dropShadow_187_2"/>
<feColorMatrix in="SourceAlpha" type="matrix" values="0 0 0 0 0 0 0 0 0 0 0 0 0 0 0 0 0 0 127 0" result="hardAlpha"/>
<feOffset dx="42" dy="43"/>
<feGaussianBlur stdDeviation="12"/>
<feColorMatrix type="matrix" values="0 0 0 0 0 0 0 0 0 0 0 0 0 0 0 0 0 0 0.01 0"/>
<feBlend mode="normal" in2="effect3_dropShadow_187_2" result="effect4_dropShadow_187_2"/>
<feBlend mode="normal" in="SourceGraphic" in2="effect4_dropShadow_187_2" result="shape"/>
</filter>
</defs>
</svg>
