<svg width="711" height="825" viewBox="0 0 711 825" fill="none" xmlns="http://www.w3.org/2000/svg">
<g filter="url(#filter0_dddd_179_65)">
<mask id="path-1-inside-1_179_65" fill="white">
<path d="M612.185 297.653C612.185 454.654 484.91 581.928 327.909 581.928C170.908 581.928 43.6338 454.654 43.6338 297.653C43.6338 140.652 170.908 13.3773 327.909 13.3773C484.91 13.3773 612.185 140.652 612.185 297.653ZM105.231 297.653C105.231 420.635 204.927 520.332 327.909 520.332C450.891 520.332 550.588 420.635 550.588 297.653C550.588 174.671 450.891 74.9742 327.909 74.9742C204.927 74.9742 105.231 174.671 105.231 297.653Z"/>
</mask>
<path d="M612.185 297.653C612.185 454.654 484.91 581.928 327.909 581.928C170.908 581.928 43.6338 454.654 43.6338 297.653C43.6338 140.652 170.908 13.3773 327.909 13.3773C484.91 13.3773 612.185 140.652 612.185 297.653ZM105.231 297.653C105.231 420.635 204.927 520.332 327.909 520.332C450.891 520.332 550.588 420.635 550.588 297.653C550.588 174.671 450.891 74.9742 327.909 74.9742C204.927 74.9742 105.231 174.671 105.231 297.653Z" fill="white"/>
<path d="M612.185 297.653C612.185 454.654 484.91 581.928 327.909 581.928C170.908 581.928 43.6338 454.654 43.6338 297.653C43.6338 140.652 170.908 13.3773 327.909 13.3773C484.91 13.3773 612.185 140.652 612.185 297.653ZM105.231 297.653C105.231 420.635 204.927 520.332 327.909 520.332C450.891 520.332 550.588 420.635 550.588 297.653C550.588 174.671 450.891 74.9742 327.909 74.9742C204.927 74.9742 105.231 174.671 105.231 297.653Z" stroke="white" stroke-opacity="0.05" stroke-width="112" mask="url(#path-1-inside-1_179_65)"/>
</g>
<g filter="url(#filter1_dddd_179_65)">
<circle cx="327.91" cy="297.653" r="130.894" fill="white"/>
<circle cx="327.91" cy="297.653" r="126.894" stroke="white" stroke-opacity="0.05" stroke-width="8"/>
</g>
<defs>
<filter id="filter0_dddd_179_65" x="0.633789" y="0.377319" width="709.551" height="824.551" filterUnits="userSpaceOnUse" color-interpolation-filters="sRGB">
<feFlood flood-opacity="0" result="BackgroundImageFix"/>
<feColorMatrix in="SourceAlpha" type="matrix" values="0 0 0 0 0 0 0 0 0 0 0 0 0 0 0 0 0 0 127 0" result="hardAlpha"/>
<feOffset dx="2" dy="11"/>
<feGaussianBlur stdDeviation="12"/>
<feColorMatrix type="matrix" values="0 0 0 0 0 0 0 0 0 0 0 0 0 0 0 0 0 0 0.06 0"/>
<feBlend mode="normal" in2="BackgroundImageFix" result="effect1_dropShadow_179_65"/>
<feColorMatrix in="SourceAlpha" type="matrix" values="0 0 0 0 0 0 0 0 0 0 0 0 0 0 0 0 0 0 127 0" result="hardAlpha"/>
<feOffset dx="7" dy="43"/>
<feGaussianBlur stdDeviation="22"/>
<feColorMatrix type="matrix" values="0 0 0 0 0 0 0 0 0 0 0 0 0 0 0 0 0 0 0.05 0"/>
<feBlend mode="normal" in2="effect1_dropShadow_179_65" result="effect2_dropShadow_179_65"/>
<feColorMatrix in="SourceAlpha" type="matrix" values="0 0 0 0 0 0 0 0 0 0 0 0 0 0 0 0 0 0 127 0" result="hardAlpha"/>
<feOffset dx="16" dy="98"/>
<feGaussianBlur stdDeviation="29.5"/>
<feColorMatrix type="matrix" values="0 0 0 0 0 0 0 0 0 0 0 0 0 0 0 0 0 0 0.03 0"/>
<feBlend mode="normal" in2="effect2_dropShadow_179_65" result="effect3_dropShadow_179_65"/>
<feColorMatrix in="SourceAlpha" type="matrix" values="0 0 0 0 0 0 0 0 0 0 0 0 0 0 0 0 0 0 127 0" result="hardAlpha"/>
<feOffset dx="28" dy="173"/>
<feGaussianBlur stdDeviation="35"/>
<feColorMatrix type="matrix" values="0 0 0 0 0 0 0 0 0 0 0 0 0 0 0 0 0 0 0.01 0"/>
<feBlend mode="normal" in2="effect3_dropShadow_179_65" result="effect4_dropShadow_179_65"/>
<feBlend mode="normal" in="SourceGraphic" in2="effect4_dropShadow_179_65" result="shape"/>
</filter>
<filter id="filter1_dddd_179_65" x="182.015" y="151.759" width="461.789" height="451.789" filterUnits="userSpaceOnUse" color-interpolation-filters="sRGB">
<feFlood flood-opacity="0" result="BackgroundImageFix"/>
<feColorMatrix in="SourceAlpha" type="matrix" values="0 0 0 0 0 0 0 0 0 0 0 0 0 0 0 0 0 0 127 0" result="hardAlpha"/>
<feOffset dx="7" dy="7"/>
<feGaussianBlur stdDeviation="11"/>
<feColorMatrix type="matrix" values="0 0 0 0 0 0 0 0 0 0 0 0 0 0 0 0 0 0 0.05 0"/>
<feBlend mode="normal" in2="BackgroundImageFix" result="effect1_dropShadow_179_65"/>
<feColorMatrix in="SourceAlpha" type="matrix" values="0 0 0 0 0 0 0 0 0 0 0 0 0 0 0 0 0 0 127 0" result="hardAlpha"/>
<feOffset dx="30" dy="28"/>
<feGaussianBlur stdDeviation="20.5"/>
<feColorMatrix type="matrix" values="0 0 0 0 0 0 0 0 0 0 0 0 0 0 0 0 0 0 0.04 0"/>
<feBlend mode="normal" in2="effect1_dropShadow_179_65" result="effect2_dropShadow_179_65"/>
<feColorMatrix in="SourceAlpha" type="matrix" values="0 0 0 0 0 0 0 0 0 0 0 0 0 0 0 0 0 0 127 0" result="hardAlpha"/>
<feOffset dx="67" dy="62"/>
<feGaussianBlur stdDeviation="27.5"/>
<feColorMatrix type="matrix" values="0 0 0 0 0 0 0 0 0 0 0 0 0 0 0 0 0 0 0.03 0"/>
<feBlend mode="normal" in2="effect2_dropShadow_179_65" result="effect3_dropShadow_179_65"/>
<feColorMatrix in="SourceAlpha" type="matrix" values="0 0 0 0 0 0 0 0 0 0 0 0 0 0 0 0 0 0 127 0" result="hardAlpha"/>
<feOffset dx="120" dy="110"/>
<feGaussianBlur stdDeviation="32.5"/>
<feColorMatrix type="matrix" values="0 0 0 0 0 0 0 0 0 0 0 0 0 0 0 0 0 0 0.01 0"/>
<feBlend mode="normal" in2="effect3_dropShadow_179_65" result="effect4_dropShadow_179_65"/>
<feBlend mode="normal" in="SourceGraphic" in2="effect4_dropShadow_179_65" result="shape"/>
</filter>
</defs>
</svg>
